<?xml version="1.0" encoding="iso-8859-1"?>
<!-- Generator: Adobe Illustrator 22.0.1, SVG Export Plug-In . SVG Version: 6.00 Build 0)  -->
<svg xmlns="http://www.w3.org/2000/svg" xmlns:xlink="http://www.w3.org/1999/xlink" version="1.1" id="Layer_1" x="0px" y="0px" viewBox="0 0 64 64" style="enable-background:new 0 0 64 64;" xml:space="preserve" width="512px" height="512px">
<linearGradient id="SVGID_1__69454" gradientUnits="userSpaceOnUse" x1="32" y1="7" x2="32" y2="57" spreadMethod="reflect">
	<stop offset="0" style="stop-color:#1A6DFF"/>
	<stop offset="1" style="stop-color:#C822FF"/>
</linearGradient>
<path style="fill:none;stroke:url(#SVGID_1__69454);stroke-width:2;stroke-miterlimit:10;" d="M12,51.636V12.364  C12,9.954,13.99,8,16.444,8h31.111C50.01,8,52,9.954,52,12.364v39.273C52,54.046,50.01,56,47.556,56H16.444  C13.99,56,12,54.046,12,51.636z"/>
<linearGradient id="SVGID_2__69454" gradientUnits="userSpaceOnUse" x1="31.498" y1="13.875" x2="31.498" y2="48.7509" spreadMethod="reflect">
	<stop offset="0" style="stop-color:#6DC7FF"/>
	<stop offset="1" style="stop-color:#E6ABFF"/>
</linearGradient>
<path style="fill:url(#SVGID_2__69454);" d="M42,30.554V49h-7V30.5c0-0.25-0.26-0.5-1.25-0.5c-1.556,0-4.519,0.321-11.125,2.875  c0,0-0.375,0.125-0.614,0.125C20.875,33,21,31.25,21,31.25V14h7v11c1.535-0.471,4.215-1,6.75-1C39.477,24,42,26.237,42,30.554z"/>
<linearGradient id="SVGID_3__69454" gradientUnits="userSpaceOnUse" x1="38.5" y1="13.875" x2="38.5" y2="48.7509" spreadMethod="reflect">
	<stop offset="0" style="stop-color:#6DC7FF"/>
	<stop offset="1" style="stop-color:#E6ABFF"/>
</linearGradient>
<path style="fill:url(#SVGID_3__69454);" d="M44,14.03l-0.43,1.283c-0.036,0.116-0.906,2.673-3.516,6.31L39.785,22H33l1.193-1.573  c1.596-2.103,3.033-5.78,3.051-5.818l0.233-0.579H44z"/>
<linearGradient id="SVGID_4__69454" gradientUnits="userSpaceOnUse" x1="24" y1="14.0833" x2="24" y2="48.8694" spreadMethod="reflect">
	<stop offset="0" style="stop-color:#6DC7FF"/>
	<stop offset="1" style="stop-color:#E6ABFF"/>
</linearGradient>
<polygon style="fill:url(#SVGID_4__69454);" points="27,43 21,49 21,37 "/>
</svg>
