<?xml version="1.0"?>
<svg xmlns="http://www.w3.org/2000/svg" xmlns:xlink="http://www.w3.org/1999/xlink" version="1.1" viewBox="0 0 172 172" width="500px" height="500px"><g fill="none" fill-rule="none" stroke="none" stroke-width="1" stroke-linecap="butt" stroke-linejoin="miter" stroke-miterlimit="10" stroke-dasharray="" stroke-dashoffset="0" font-family="none" font-weight="none" font-size="none" text-anchor="none" style="mix-blend-mode: normal"><path d="M0,172v-172h172v172z" fill="none" fill-rule="nonzero"/><g fill="#00d8ff" fill-rule="evenodd"><path d="M118.86813,13.70625c-2.68212,-0.09019 -5.48957,0.37743 -8.30438,1.29c-5.62962,1.82515 -11.52889,5.38191 -17.58297,10.30656c-2.3726,1.92997 -4.76672,4.13612 -7.16891,6.47687c-2.34922,-2.28133 -4.69415,-4.42826 -7.01437,-6.31562c-6.04921,-4.9207 -11.9325,-8.47883 -17.54937,-10.29984c-5.61687,-1.82101 -11.20568,-1.87744 -15.79578,0.77266c-4.59011,2.6501 -7.33502,7.51483 -8.56641,13.28969c-1.23139,5.77486 -1.09575,12.65197 0.1411,20.35109c0.42961,2.67426 1.04232,5.47981 1.74015,8.33797c-2.62278,0.79487 -5.16982,1.63062 -7.53172,2.55312c-7.12801,2.78404 -13.02601,6.11473 -17.32094,10.07812c-4.29493,3.9634 -7.06813,8.77369 -7.06813,14.05563c0,5.28193 2.7732,10.08551 7.06813,14.0489c4.29493,3.9634 10.19293,7.30081 17.32094,10.08485c2.52556,0.98642 5.2599,1.87463 8.08266,2.71438c-1.01534,3.79377 -1.83797,7.47522 -2.3986,10.965c-1.23783,7.70531 -1.36855,14.58328 -0.13438,20.37125c1.23419,5.78797 3.98049,10.68024 8.59328,13.34344c4.6128,2.6632 10.22663,2.5978 15.85625,0.77265c5.62962,-1.82515 11.52217,-5.37519 17.57625,-10.29984c2.35074,-1.9122 4.72863,-4.09354 7.10844,-6.40969c2.39229,2.33011 4.77969,4.52165 7.14203,6.44328c6.04922,4.92069 11.93922,8.47211 17.5561,10.29313c5.61687,1.82101 11.20568,1.87744 15.79578,-0.77266c4.5901,-2.6501 7.3283,-7.51483 8.55969,-13.28969c1.23139,-5.77486 1.09574,-12.64525 -0.1411,-20.34437c-0.56214,-3.49925 -1.38528,-7.19291 -2.40531,-10.9986c2.916,-0.86019 5.73672,-1.77229 8.33797,-2.78828c7.12801,-2.78404 13.02601,-6.12145 17.32094,-10.08485c4.29493,-3.96339 7.06813,-8.76697 7.06813,-14.0489c0,-5.28193 -2.7732,-10.09223 -7.06813,-14.05563c-4.29493,-3.96339 -10.19293,-7.29409 -17.32094,-10.07812c-2.39579,-0.93574 -4.98192,-1.78238 -7.64594,-2.58672c0.70351,-2.87567 1.32811,-5.70134 1.76031,-8.39172c1.23783,-7.70531 1.36857,-14.59 0.13438,-20.37797c-1.23416,-5.78796 -3.9872,-10.67352 -8.6,-13.33672c-2.3064,-1.3316 -4.86304,-1.97919 -7.54515,-2.06938zM118.55235,20.70719c1.68306,0.04602 3.11886,0.44654 4.34703,1.15563c2.45635,1.41817 4.27199,4.17831 5.24063,8.72094c0.96864,4.54263 0.93516,10.68019 -0.20828,17.79797c-0.39149,2.43698 -0.95994,5.01978 -1.60578,7.6661c-7.03654,-1.69342 -14.74698,-2.95003 -22.96469,-3.6886c-4.12538,-5.71513 -8.36426,-10.92173 -12.63797,-15.54047c2.26054,-2.20663 4.50646,-4.27041 6.69859,-6.05359c5.59246,-4.54915 10.88696,-7.64459 15.30531,-9.07703c2.20918,-0.71623 4.14209,-1.02696 5.82516,-0.98094zM53.27297,20.72734c1.69279,-0.04726 3.62976,0.26265 5.84531,0.98094c4.4311,1.43658 9.73487,4.53065 15.33219,9.08375c2.14814,1.74739 4.34376,3.77189 6.5575,5.92594c-4.30531,4.65654 -8.57924,9.90827 -12.73203,15.67485c-8.18296,0.752 -15.86201,2.01543 -22.8639,3.71547c-0.64103,-2.63163 -1.20955,-5.20115 -1.59906,-7.62578c-1.14444,-7.12396 -1.173,-13.26239 -0.20156,-17.81813c0.97144,-4.55574 2.80189,-7.33669 5.28094,-8.76797c1.23952,-0.71564 2.68783,-1.12181 4.38062,-1.16906zM85.91937,41.77047c2.80226,3.04954 5.60512,6.38664 8.385,9.97735c-2.73146,-0.11389 -5.49634,-0.18141 -8.30437,-0.18141c-2.86395,0 -5.68147,0.06971 -8.46563,0.18813c2.78052,-3.59348 5.58205,-6.93224 8.385,-9.98406zM86,58.5136c4.67804,0 9.2376,0.19223 13.67265,0.51734c3.0517,4.38309 6.03389,9.03309 8.87547,13.95485c2.49681,4.3246 4.75628,8.64254 6.81281,12.90672c-2.07824,4.32075 -4.37558,8.69708 -6.90687,13.0814c-2.22821,3.85937 -4.55509,7.52488 -6.92031,11.05906c-5.00971,0.41872 -10.20071,0.65172 -15.53375,0.65172c-5.46143,0 -10.76905,-0.24682 -15.88985,-0.68531c-2.32584,-3.48337 -4.61347,-7.09336 -6.80609,-10.89109c-2.5255,-4.3743 -4.81176,-8.74265 -6.88672,-13.05453c2.08366,-4.33623 4.38019,-8.72881 6.92031,-13.12844c2.82668,-4.89595 5.80018,-9.51904 8.83516,-13.88094c4.4828,-0.33243 9.09529,-0.53078 13.82719,-0.53078zM108.52797,59.89094c5.67074,0.70756 10.99512,1.6899 15.95031,2.86891c-1.47032,4.81994 -3.28139,9.85445 -5.47578,15.05c-1.42479,-2.74657 -2.90044,-5.50247 -4.49485,-8.26406c-1.9322,-3.34668 -3.94465,-6.53731 -5.97969,-9.65485zM63.1025,59.94469c-1.99209,3.05925 -3.95226,6.18786 -5.84531,9.46672c-1.61486,2.79703 -3.12115,5.59001 -4.56203,8.37156c-2.17545,-5.16431 -3.97563,-10.17019 -5.43547,-14.96265c4.91824,-1.18114 10.21159,-2.16 15.84281,-2.87563zM131.28437,64.58735c2.43855,0.73783 4.79365,1.50782 6.95391,2.35156c6.57093,2.56645 11.76859,5.60551 15.13735,8.71422c3.36874,3.10871 4.83078,6.07335 4.83078,8.94937c0,2.87603 -1.46203,5.84067 -4.83078,8.94937c-3.36875,3.10871 -8.56642,6.14777 -15.13735,8.71422c-2.4006,0.93762 -5.03818,1.78786 -7.78031,2.59344c-1.95608,-6.0502 -4.4528,-12.36216 -7.42422,-18.80578c3.41647,-7.39786 6.17639,-14.61084 8.25062,-21.4664zM40.6014,64.62094c2.05048,6.78716 4.77498,13.92843 8.14313,21.25141c-2.99091,6.48118 -5.49999,12.82901 -7.46453,18.91328c-2.6455,-0.78439 -5.19367,-1.6116 -7.51828,-2.51953c-6.57093,-2.56645 -11.76859,-5.60551 -15.13734,-8.71422c-3.36875,-3.10871 -4.83078,-6.07335 -4.83078,-8.94937c0,-2.87603 1.46203,-5.84067 4.83078,-8.94937c3.36875,-3.10871 8.56642,-6.14777 15.13734,-8.71422c2.12702,-0.83076 4.44263,-1.58979 6.83969,-2.31797zM86,68.8c-9.45855,0 -17.2,7.74145 -17.2,17.2c0,9.45855 7.74145,17.2 17.2,17.2c9.45855,0 17.2,-7.74145 17.2,-17.2c0,-9.45855 -7.74145,-17.2 -17.2,-17.2zM52.77578,94.1364c1.4472,2.79541 2.95231,5.60049 4.57547,8.41188c1.26996,2.19963 2.56692,4.34075 3.88344,6.44328c-4.6198,-0.6406 -9.01125,-1.45164 -13.13515,-2.41203c1.31143,-4.01659 2.88039,-8.18591 4.67625,-12.44313zM119.08985,94.1364c1.80305,4.26729 3.37281,8.4433 4.68969,12.47c-4.13699,0.95926 -8.54197,1.76753 -13.17547,2.40531c1.33378,-2.12824 2.65099,-4.29616 3.93719,-6.5239c1.61122,-2.79071 3.11048,-5.57642 4.5486,-8.35141zM46.1175,113.25797c6.22579,1.47487 12.97384,2.60781 20.12937,3.34594c4.77667,6.90881 9.75293,13.11676 14.7611,18.54375c-2.23949,2.18354 -4.45914,4.23283 -6.6314,5.99985c-5.59246,4.54915 -10.89368,7.63786 -15.31203,9.07031c-4.41836,1.43245 -7.71584,1.24348 -10.17219,-0.17469c-2.45635,-1.41818 -4.26527,-4.17831 -5.23391,-8.72094c-0.96864,-4.54263 -0.94187,-10.67347 0.20156,-17.79125c0.51873,-3.229 1.29396,-6.68661 2.2575,-10.27297zM125.76828,113.28485c0.97159,3.60824 1.74912,7.07852 2.27094,10.32672c1.14444,7.12396 1.173,13.26239 0.20156,17.81812c-0.97144,4.55574 -2.78846,7.34341 -5.2675,8.77469c-2.47904,1.43128 -5.80828,1.618 -10.23938,0.18141c-4.4311,-1.43658 -9.73488,-4.53065 -15.33219,-9.08375c-2.18789,-1.77972 -4.4229,-3.84562 -6.67844,-6.04688c5.04172,-5.44817 10.05312,-11.68775 14.86187,-18.63781c7.17358,-0.7332 13.94037,-1.85938 20.18313,-3.3325zM75.22313,117.30937c3.53206,0.19249 7.11067,0.3225 10.77687,0.3225c3.54493,0 7.0075,-0.12221 10.4275,-0.30234c-3.49603,4.71683 -7.05962,9.00498 -10.6089,12.8664c-3.54713,-3.86967 -7.10402,-8.16549 -10.59547,-12.88656z"/></g></g></svg>
